<svg width="22" height="22" viewBox="0 0 22 22" fill="none" xmlns="http://www.w3.org/2000/svg">
<g clip-path="url(#clip0_342_674)">
<path d="M7.56253 11.593L15.2883 18.3906C15.3776 18.4697 15.4859 18.5241 15.6026 18.5487C15.7193 18.5732 15.8404 18.5669 15.9539 18.5305C16.0675 18.4941 16.1696 18.4288 16.2503 18.341C16.331 18.2532 16.3874 18.1459 16.4141 18.0297L19.6453 3.91874C19.6724 3.79722 19.666 3.67062 19.6268 3.55246C19.5875 3.4343 19.5169 3.32901 19.4225 3.24783C19.3281 3.16666 19.2134 3.11265 19.0907 3.09156C18.968 3.07048 18.8419 3.08311 18.7258 3.12812L2.86175 9.35859C2.22581 9.60781 2.31175 10.5359 2.98206 10.6734L7.56253 11.593Z" stroke="#696875" stroke-width="1.5" stroke-linecap="round" stroke-linejoin="round"/>
<path d="M7.5625 11.593L19.2586 3.14531" stroke="#696875" stroke-width="1.5" stroke-linecap="round" stroke-linejoin="round"/>
<path d="M11.4211 14.9875L8.73984 17.6687C8.64419 17.7659 8.52181 17.8324 8.38828 17.8598C8.25474 17.8872 8.11606 17.8743 7.98987 17.8227C7.86368 17.7711 7.75567 17.6832 7.67958 17.5701C7.60348 17.457 7.56273 17.3238 7.5625 17.1875V11.593" stroke="#696875" stroke-width="1.5" stroke-linecap="round" stroke-linejoin="round"/>
</g>
<defs>
<clipPath id="clip0_342_674">
<rect width="22" height="22" fill="white"/>
</clipPath>
</defs>
</svg>
