<svg width="16" height="20" viewBox="0 0 16 20" fill="none" xmlns="http://www.w3.org/2000/svg">
<path d="M4.68221 12C5.63251 12.6318 6.77326 13 8 13C9.22674 13 10.3675 12.6318 11.3178 12M11.3213 12C11.9519 12 12.2672 12 12.5303 12.0472C13.7648 12.2689 14.7311 13.2352 14.9528 14.4697C15 14.7328 15 15.0481 15 15.6787V17.4C15 17.9601 15 18.2401 14.891 18.454C14.7951 18.6422 14.6422 18.7951 14.454 18.891C14.2401 19 13.9601 19 13.4 19H2.6C2.03995 19 1.75992 19 1.54601 18.891C1.35785 18.7951 1.20487 18.6422 1.10899 18.454C1 18.2401 1 17.9601 1 17.4V15.6841C1 15.0485 1 14.7306 1.04798 14.4656C1.27087 13.2344 2.23442 12.2709 3.46558 12.048C3.73064 12 4.04846 12 4.6841 12M12 5C12 7.20914 10.2091 9 8 9C5.79086 9 4 7.20914 4 5C4 2.79086 5.79086 1 8 1C10.2091 1 12 2.79086 12 5Z" stroke="#F6B828" stroke-width="1.5" stroke-linecap="round" stroke-linejoin="round"/>
</svg>
