<svg width="20" height="16" viewBox="0 0 20 16" fill="none" xmlns="http://www.w3.org/2000/svg">
<path d="M1 5H19M5 12H7M4.2 15H15.8C16.9201 15 17.4802 15 17.908 14.782C18.2843 14.5903 18.5903 14.2843 18.782 13.908C19 13.4802 19 12.9201 19 11.8V4.2C19 3.0799 19 2.51984 18.782 2.09202C18.5903 1.71569 18.2843 1.40973 17.908 1.21799C17.4802 1 16.9201 1 15.8 1H4.2C3.0799 1 2.51984 1 2.09202 1.21799C1.71569 1.40973 1.40973 1.71569 1.21799 2.09202C1 2.51984 1 3.07989 1 4.2V11.8C1 12.9201 1 13.4802 1.21799 13.908C1.40973 14.2843 1.71569 14.5903 2.09202 14.782C2.51984 15 3.07989 15 4.2 15Z" stroke="#F6B828" stroke-width="1.5" stroke-linecap="round" stroke-linejoin="round"/>
</svg>
