<svg width="22" height="22" viewBox="0 0 22 22" fill="none" xmlns="http://www.w3.org/2000/svg">
<path d="M19.747 7.37186C19.7042 6.43514 19.5554 5.79543 19.3379 5.23576C19.117 4.64856 18.7706 4.11669 18.3229 3.67706C17.8834 3.22937 17.3514 2.8828 16.7642 2.66178C16.2044 2.44438 15.5648 2.29574 14.6281 2.25317C13.6897 2.2102 13.3898 2.2 11 2.2C8.61008 2.2 8.31024 2.2102 7.37178 2.2529C6.43506 2.29574 5.7955 2.44452 5.23569 2.66205C4.6485 2.88294 4.11663 3.22937 3.677 3.67706C3.22932 4.11655 2.88275 4.64843 2.66173 5.23563C2.44434 5.79543 2.29569 6.43514 2.25313 7.37173C2.21016 8.31033 2.19995 8.61004 2.19995 10.9999C2.19995 13.3899 2.21016 13.6898 2.25313 14.6283C2.29583 15.5649 2.4446 16.2046 2.66213 16.7644C2.88302 17.3514 3.22946 17.8834 3.67714 18.3229C4.11663 18.7706 4.64863 19.1171 5.23583 19.3379C5.7955 19.5556 6.43519 19.7043 7.37191 19.7471C8.31051 19.7899 8.61022 19.8 11.0001 19.8C13.39 19.8 13.6898 19.7899 14.6283 19.7471C15.565 19.7043 16.2045 19.5556 16.7643 19.3379C17.9464 18.8809 18.8808 17.9464 19.3379 16.7644C19.5556 16.2046 19.7042 15.5649 19.747 14.6283C19.7897 13.6897 19.8 13.3899 19.8 11.0001C19.8 8.61004 19.7897 8.31033 19.747 7.37186ZM18.163 14.5562C18.1239 15.4142 17.9805 15.8801 17.86 16.1902C17.564 16.9577 16.9574 17.5643 16.1899 17.8603C15.8799 17.9808 15.4139 18.1242 14.5559 18.1633C13.6282 18.2057 13.3498 18.2146 11 18.2146C8.64996 18.2146 8.37174 18.2057 7.44388 18.1633C6.58599 18.1242 6.12004 17.9808 5.80986 17.8603C5.42771 17.7192 5.08195 17.4943 4.79808 17.202C4.50576 16.9181 4.28085 16.5725 4.13972 16.1902C4.01927 15.8801 3.87587 15.4142 3.83679 14.5562C3.79449 13.6283 3.7855 13.3499 3.7855 11.0002C3.7855 8.65033 3.79449 8.3721 3.83679 7.4441C3.876 6.58607 4.01927 6.12012 4.13972 5.81007C4.28085 5.42778 4.5059 5.08201 4.79808 4.79815C5.08195 4.50583 5.42771 4.28091 5.81 4.13992C6.12004 4.01933 6.58599 3.87606 7.44402 3.83685C8.37188 3.79455 8.65023 3.78556 11 3.78556H10.9998C13.3495 3.78556 13.6279 3.79455 14.5559 3.83698C15.4139 3.87606 15.8797 4.01947 16.1899 4.13992C16.5721 4.28104 16.9178 4.50596 17.2017 4.79815C17.494 5.08201 17.7189 5.42778 17.8599 5.81007C17.9805 6.12012 18.1239 6.58607 18.163 7.4441C18.2053 8.37197 18.2143 8.65033 18.2143 11.0001C18.2143 13.3499 18.2054 13.6282 18.163 14.5562Z" fill="#696875"/>
<path d="M10.9999 6.60001C8.5699 6.60001 6.59998 8.57006 6.59998 11.0001C6.59998 13.4301 8.5699 15.4 10.9999 15.4C13.4301 15.4 15.4 13.4301 15.4 11.0001C15.4 8.57006 13.4301 6.60001 10.9999 6.60001ZM10.9999 13.8562C9.42261 13.856 8.1438 12.5774 8.14393 10.9999C8.14393 9.42264 9.42261 8.14383 11 8.14383C12.5775 8.14396 13.8561 9.42264 13.8561 10.9999C13.8561 12.5774 12.5773 13.8562 10.9999 13.8562Z" fill="#696875"/>
<path d="M16.5 6.60007C16.5 7.20752 16.0076 7.7 15.4001 7.7C14.7925 7.7 14.3 7.20752 14.3 6.60007C14.3 5.99248 14.7925 5.5 15.4001 5.5C16.0076 5.5 16.5 5.99248 16.5 6.60007Z" fill="#696875"/>
</svg>
